HIERARCHY
ROOT mixamorig:Hips
{
	OFFSET 0.000000 201.639420 0.000000
	CHANNELS 6 Xposition Yposition Zposition Xrotation Yrotation Zrotation
	JOINT mixamorig:Spine
	{
		OFFSET 0.006200 19.524994 -2.481800
		CHANNELS 3 Xrotation Yrotation Zrotation
		JOINT mixamorig:Spine1
		{
			OFFSET -0.000900 22.835007 -2.825400
			CHANNELS 3 Xrotation Yrotation Zrotation
			JOINT mixamorig:Spine2
			{
				OFFSET -0.020600 26.552490 -3.193300
				CHANNELS 3 Xrotation Yrotation Zrotation
				JOINT mixamorig:Neck
				{
					OFFSET -0.060000 30.701813 1.352200
					CHANNELS 3 Xrotation Yrotation Zrotation
					JOINT mixamorig:Head
					{
						OFFSET -0.087200 22.547607 3.670900
						CHANNELS 3 Xrotation Yrotation Zrotation
						JOINT mixamorig:HeadTop_End
						{
							OFFSET -0.830600 40.355194 7.893500
							CHANNELS 3 Xrotation Yrotation Zrotation
							End Site
							{
								OFFSET 0.000000 30.592346 0.000000
							}
						}
						JOINT mixamorig:RightEye
						{
							OFFSET -6.302100 18.118591 16.197100
							CHANNELS 3 Xrotation Yrotation Zrotation
							End Site
							{
								OFFSET 0.000000 30.592346 0.000000
							}
						}
						JOINT mixamorig:LeftEye
						{
							OFFSET 6.741500 18.382690 16.401899
							CHANNELS 3 Xrotation Yrotation Zrotation
							End Site
							{
								OFFSET 0.000000 30.592346 0.000000
							}
						}
					}
				}
				JOINT mixamorig:LeftShoulder
				{
					OFFSET 11.924900 18.230499 1.425400
					CHANNELS 3 Xrotation Yrotation Zrotation
					JOINT mixamorig:LeftArm
					{
						OFFSET 25.435989 -0.697632 -5.229300
						CHANNELS 3 Xrotation Yrotation Zrotation
						JOINT mixamorig:LeftForeArm
						{
							OFFSET 54.684776 0.000000 0.000000
							CHANNELS 3 Xrotation Yrotation Zrotation
							JOINT mixamorig:LeftHand
							{
								OFFSET 55.098175 0.000000 0.000000
								CHANNELS 3 Xrotation Yrotation Zrotation
								JOINT mixamorig:LeftHandMiddle1
								{
									OFFSET 23.369751 0.000000 0.000000
									CHANNELS 3 Xrotation Yrotation Zrotation
									JOINT mixamorig:LeftHandMiddle2
									{
										OFFSET 6.378677 0.000000 0.000000
										CHANNELS 3 Xrotation Yrotation Zrotation
										JOINT mixamorig:LeftHandMiddle3
										{
											OFFSET 6.148331 0.000000 0.000000
											CHANNELS 3 Xrotation Yrotation Zrotation
											JOINT mixamorig:LeftHandMiddle4
											{
												OFFSET 6.582504 0.000000 0.000000
												CHANNELS 3 Xrotation Yrotation Zrotation
												End Site
												{
													OFFSET -1.168900 6.395691 1.028606
												}
											}
										}
									}
								}
								JOINT mixamorig:LeftHandThumb1
								{
									OFFSET 7.235672 -3.848206 5.434273
									CHANNELS 3 Xrotation Yrotation Zrotation
									JOINT mixamorig:LeftHandThumb2
									{
										OFFSET 6.568451 -3.792297 3.792300
										CHANNELS 3 Xrotation Yrotation Zrotation
										JOINT mixamorig:LeftHandThumb3
										{
											OFFSET 6.063080 -3.500519 3.500518
											CHANNELS 3 Xrotation Yrotation Zrotation
											JOINT mixamorig:LeftHandThumb4
											{
												OFFSET 4.793182 -2.767334 2.767349
												CHANNELS 3 Xrotation Yrotation Zrotation
												End Site
												{
													OFFSET 0.101639 6.054260 1.275483
												}
											}
										}
									}
								}
								JOINT mixamorig:LeftHandIndex1
								{
									OFFSET 23.101074 -0.309540 4.992809
									CHANNELS 3 Xrotation Yrotation Zrotation
									JOINT mixamorig:LeftHandIndex2
									{
										OFFSET 6.226883 0.000000 0.000000
										CHANNELS 3 Xrotation Yrotation Zrotation
										JOINT mixamorig:LeftHandIndex3
										{
											OFFSET 6.094330 0.000000 0.000000
											CHANNELS 3 Xrotation Yrotation Zrotation
											JOINT mixamorig:LeftHandIndex4
											{
												OFFSET 5.482605 0.000000 0.000000
												CHANNELS 3 Xrotation Yrotation Zrotation
												End Site
												{
													OFFSET -1.427902 5.233032 0.797164
												}
											}
										}
									}
								}
								JOINT mixamorig:LeftHandRing1
								{
									OFFSET 22.299240 0.021149 -3.964172
									CHANNELS 3 Xrotation Yrotation Zrotation
									JOINT mixamorig:LeftHandRing2
									{
										OFFSET 6.321869 0.000000 0.000000
										CHANNELS 3 Xrotation Yrotation Zrotation
										JOINT mixamorig:LeftHandRing3
										{
											OFFSET 5.899796 0.000000 0.000000
											CHANNELS 3 Xrotation Yrotation Zrotation
											JOINT mixamorig:LeftHandRing4
											{
												OFFSET 6.517899 0.000000 0.000000
												CHANNELS 3 Xrotation Yrotation Zrotation
												End Site
												{
													OFFSET -1.637299 6.232208 0.980890
												}
											}
										}
									}
								}
								JOINT mixamorig:LeftHandPinky1
								{
									OFFSET 20.463791 -0.302338 -8.562233
									CHANNELS 3 Xrotation Yrotation Zrotation
									JOINT mixamorig:LeftHandPinky2
									{
										OFFSET 6.908646 0.000000 0.000000
										CHANNELS 3 Xrotation Yrotation Zrotation
										JOINT mixamorig:LeftHandPinky3
										{
											OFFSET 4.622849 0.000000 0.000000
											CHANNELS 3 Xrotation Yrotation Zrotation
											JOINT mixamorig:LeftHandPinky4
											{
												OFFSET 5.216080 0.000000 0.000000
												CHANNELS 3 Xrotation Yrotation Zrotation
												End Site
												{
													OFFSET -0.606308 5.116241 0.814926
												}
											}
										}
									}
								}
							}
						}
					}
				}
				JOINT mixamorig:RightShoulder
				{
					OFFSET -12.001300 18.284088 1.348900
					CHANNELS 3 Xrotation Yrotation Zrotation
					JOINT mixamorig:RightArm
					{
						OFFSET -25.308500 -0.751312 -5.164599
						CHANNELS 3 Xrotation Yrotation Zrotation
						JOINT mixamorig:RightForeArm
						{
							OFFSET -54.684429 0.000000 0.000000
							CHANNELS 3 Xrotation Yrotation Zrotation
							JOINT mixamorig:RightHand
							{
								OFFSET -55.150291 0.000000 0.000000
								CHANNELS 3 Xrotation Yrotation Zrotation
								JOINT mixamorig:RightHandMiddle1
								{
									OFFSET -23.317566 0.000000 0.000000
									CHANNELS 3 Xrotation Yrotation Zrotation
									JOINT mixamorig:RightHandMiddle2
									{
										OFFSET -6.378403 0.000000 0.000000
										CHANNELS 3 Xrotation Yrotation Zrotation
										JOINT mixamorig:RightHandMiddle3
										{
											OFFSET -6.148193 0.000000 0.000000
											CHANNELS 3 Xrotation Yrotation Zrotation
											JOINT mixamorig:RightHandMiddle4
											{
												OFFSET -6.583389 0.000000 0.000000
												CHANNELS 3 Xrotation Yrotation Zrotation
												End Site
												{
													OFFSET 1.171692 6.395905 1.029786
												}
											}
										}
									}
								}
								JOINT mixamorig:RightHandThumb1
								{
									OFFSET -7.190521 -3.860474 5.435846
									CHANNELS 3 Xrotation Yrotation Zrotation
									JOINT mixamorig:RightHandThumb2
									{
										OFFSET -6.567429 -3.791718 3.791708
										CHANNELS 3 Xrotation Yrotation Zrotation
										JOINT mixamorig:RightHandThumb3
										{
											OFFSET -6.062469 -3.500153 3.500166
											CHANNELS 3 Xrotation Yrotation Zrotation
											JOINT mixamorig:RightHandThumb4
											{
												OFFSET -4.792618 -2.767029 2.767022
												CHANNELS 3 Xrotation Yrotation Zrotation
												End Site
												{
													OFFSET -0.100327 6.053253 1.276754
												}
											}
										}
									}
								}
								JOINT mixamorig:RightHandIndex1
								{
									OFFSET -23.048981 -0.310791 4.992554
									CHANNELS 3 Xrotation Yrotation Zrotation
									JOINT mixamorig:RightHandIndex2
									{
										OFFSET -6.227539 0.000000 0.000000
										CHANNELS 3 Xrotation Yrotation Zrotation
										JOINT mixamorig:RightHandIndex3
										{
											OFFSET -6.095047 0.000000 0.000000
											CHANNELS 3 Xrotation Yrotation Zrotation
											JOINT mixamorig:RightHandIndex4
											{
												OFFSET -5.484772 0.000000 0.000000
												CHANNELS 3 Xrotation Yrotation Zrotation
												End Site
												{
													OFFSET 1.420593 5.237305 0.797056
												}
											}
										}
									}
								}
								JOINT mixamorig:RightHandRing1
								{
									OFFSET -22.246323 0.020569 -3.963762
									CHANNELS 3 Xrotation Yrotation Zrotation
									JOINT mixamorig:RightHandRing2
									{
										OFFSET -6.322128 0.000000 0.000000
										CHANNELS 3 Xrotation Yrotation Zrotation
										JOINT mixamorig:RightHandRing3
										{
											OFFSET -5.900024 0.000000 0.000000
											CHANNELS 3 Xrotation Yrotation Zrotation
											JOINT mixamorig:RightHandRing4
											{
												OFFSET -6.518356 0.000000 0.000000
												CHANNELS 3 Xrotation Yrotation Zrotation
												End Site
												{
													OFFSET 1.636398 6.232697 0.982186
												}
											}
										}
									}
								}
								JOINT mixamorig:RightHandPinky1
								{
									OFFSET -20.411011 -0.303314 -8.561701
									CHANNELS 3 Xrotation Yrotation Zrotation
									JOINT mixamorig:RightHandPinky2
									{
										OFFSET -6.907349 0.000000 0.000000
										CHANNELS 3 Xrotation Yrotation Zrotation
										JOINT mixamorig:RightHandPinky3
										{
											OFFSET -4.623840 0.000000 0.000000
											CHANNELS 3 Xrotation Yrotation Zrotation
											JOINT mixamorig:RightHandPinky4
											{
												OFFSET -5.218353 0.000000 0.000000
												CHANNELS 3 Xrotation Yrotation Zrotation
												End Site
												{
													OFFSET 0.602097 5.118835 0.816273
												}
											}
										}
									}
								}
							}
						}
					}
				}
			}
		}
	}
	JOINT mixamorig:LeftUpLeg
	{
		OFFSET 18.168400 -13.561905 -0.039000
		CHANNELS 3 Xrotation Yrotation Zrotation
		JOINT mixamorig:LeftLeg
		{
			OFFSET 0.577358 -80.825211 -3.695000
			CHANNELS 3 Xrotation Yrotation Zrotation
			JOINT mixamorig:LeftFoot
			{
				OFFSET -0.577356 -83.370262 -6.520700
				CHANNELS 3 Xrotation Yrotation Zrotation
				JOINT mixamorig:LeftToeBase
				{
					OFFSET 0.750401 -20.798306 25.135401
					CHANNELS 3 Xrotation Yrotation Zrotation
					JOINT mixamorig:LeftToe_End
					{
						OFFSET -0.000500 0.001200 19.917799
						CHANNELS 3 Xrotation Yrotation Zrotation
						End Site
						{
							OFFSET 0.000000 19.917805 0.000000
						}
					}
				}
			}
		}
	}
	JOINT mixamorig:RightUpLeg
	{
		OFFSET -18.162500 -13.585098 -0.041000
		CHANNELS 3 Xrotation Yrotation Zrotation
		JOINT mixamorig:RightLeg
		{
			OFFSET -0.595024 -80.945297 -3.631900
			CHANNELS 3 Xrotation Yrotation Zrotation
			JOINT mixamorig:RightFoot
			{
				OFFSET 0.595024 -83.218193 -6.561200
				CHANNELS 3 Xrotation Yrotation Zrotation
				JOINT mixamorig:RightToeBase
				{
					OFFSET -0.753601 -20.807106 25.115000
					CHANNELS 3 Xrotation Yrotation Zrotation
					JOINT mixamorig:RightToe_End
					{
						OFFSET 0.000299 0.001700 19.918200
						CHANNELS 3 Xrotation Yrotation Zrotation
						End Site
						{
							OFFSET 0.000000 19.918203 0.000000
						}
					}
				}
			}
		}
	}
}
MOTION
Frames: 4
Frame Time: 0.033333
-1.041503 151.383209 -3.636787 -10.960573 -3.724223 -3.341864 15.353686 -1.318350 5.338775 5.675027 -0.753087 1.978431 5.673128 -0.744640 1.986572 9.409474 4.197007 2.578041 11.430758 1.553196 5.381499 0.000003 0.000001 0.000000 0.000003 0.000001 0.000000 0.000003 0.000001 0.000000 0.450585 -6.477986 -14.879726 -24.174806 -19.240872 -46.702730 0.000035 -54.885979 0.000020 27.476009 3.904958 34.467911 -0.144217 -0.495955 -8.324410 2.737051 5.498160 -52.902967 1.987069 4.843066 -44.595685 0.000001 -0.000003 0.000002 6.507664 10.394231 -12.491893 6.844001 19.586496 -1.556980 0.862332 27.057012 7.672256 0.000001 0.000004 0.000001 0.449581 2.452242 -20.319794 2.683724 5.457614 -52.344323 0.537970 2.672678 -22.756510 -0.000002 -0.000000 -0.000001 -0.264400 -2.206796 -6.069225 2.600786 5.392875 -51.467043 1.532968 4.336111 -38.925487 -0.000002 0.000001 0.000003 -0.370885 -3.748156 -5.454059 2.158760 0.922517 -46.740573 0.263327 1.889581 -15.865443 -0.000001 0.000001 -0.000001 0.432959 2.785314 10.997834 -21.018507 41.703967 61.559061 -0.000017 42.099759 0.000027 38.735553 2.078024 -40.132337 0.083299 -1.341417 17.604818 0.329317 -2.118468 17.670119 0.030397 -0.650819 5.348254 0.000001 -0.000000 -0.000004 -1.602262 -0.553308 -0.493687 13.429576 -16.415031 3.088466 -5.759022 -11.880507 -5.230566 -0.000003 -0.000001 -0.000001 -2.994867 2.852612 32.244145 0.165838 -1.512504 12.513115 0.011856 -0.406820 3.340127 0.000001 0.000000 -0.000002 1.203831 -5.694264 13.726252 0.207590 -1.689653 14.007546 0.032141 -0.669249 5.500320 -0.000001 0.000001 -0.000001 1.758419 -12.279858 7.865408 0.202893 -1.670728 13.847584 0.079483 -1.050411 8.653259 -0.000001 0.000000 -0.000001 -59.106838 -1.884122 11.454185 60.452003 1.036871 4.426959 9.594583 -0.317839 -7.277685 -1.206320 0.000005 -0.000002 -0.000000 0.000001 0.000000 -58.825257 -3.009285 -7.034660 62.809409 1.614356 1.620429 5.084904 -0.066622 0.764092 1.053747 0.000010 -0.000002 0.000000 0.000000 0.000000 
-0.957454 151.364578 -3.644806 -11.035427 -3.620993 -3.409036 15.391147 -1.346177 5.330116 5.679068 -0.765023 1.969814 5.677083 -0.756694 1.978243 9.470793 4.401831 2.415185 11.289414 1.760897 5.316742 0.000000 0.000000 0.000001 0.000000 0.000000 0.000001 0.000000 0.000000 0.000001 0.445987 -6.511493 -14.993501 -24.145492 -20.008576 -46.789306 -0.000011 -51.924635 -0.000041 27.590493 3.250135 35.319817 -0.144212 -0.495921 -8.324405 2.737050 5.498144 -52.902964 1.987068 4.843081 -44.595668 -0.000002 -0.000000 -0.000001 6.507678 10.394270 -12.491887 6.844003 19.586512 -1.556976 0.862332 27.057000 7.672255 0.000000 -0.000002 0.000000 0.449587 2.452262 -20.319791 2.683721 5.457581 -52.344353 0.537938 2.672692 -22.756546 -0.000002 -0.000000 0.000001 -0.264402 -2.206811 -6.069225 2.600765 5.392869 -51.467057 1.532960 4.336130 -38.925470 0.000001 -0.000000 0.000002 -0.370886 -3.748154 -5.454057 2.158762 0.922504 -46.740566 0.263323 1.889580 -15.865445 0.000000 0.000001 -0.000001 0.416723 3.029910 10.968029 -20.826326 41.390830 61.383422 0.000020 42.220241 -0.000033 38.591255 2.140173 -40.253344 0.083297 -1.341417 17.604816 0.329320 -2.118469 17.670123 0.030403 -0.650819 5.348252 0.000000 0.000001 -0.000001 -1.602266 -0.553306 -0.493689 13.429581 -16.415029 3.088466 -5.759026 -11.880510 -5.230566 0.000002 0.000003 0.000001 -2.994870 2.852615 32.244138 0.165840 -1.512505 12.513118 0.011857 -0.406814 3.340128 0.000002 0.000002 -0.000002 1.203828 -5.694263 13.726248 0.207588 -1.689654 14.007547 0.032142 -0.669250 5.500318 0.000001 0.000001 -0.000001 1.758419 -12.279858 7.865405 0.202895 -1.670730 13.847588 0.079483 -1.050412 8.653260 -0.000001 0.000000 -0.000000 -59.104448 -1.850614 11.490332 60.513311 0.908308 4.382710 9.567861 -0.309112 -7.145877 -1.207417 -0.000001 -0.000001 -0.000000 0.000000 0.000000 -58.722845 -2.977428 -7.005654 62.813111 1.526123 1.579661 5.077226 -0.064542 0.895840 1.036247 0.000006 0.000000 0.000000 0.000000 0.000000 
-0.882883 151.342346 -3.645073 -11.092360 -3.566605 -3.494613 15.431943 -1.406260 5.302096 5.684635 -0.789425 1.952513 5.682562 -0.781317 1.961364 9.485815 4.585605 2.282711 11.038402 1.990383 5.132232 -0.000001 0.000000 -0.000000 -0.000001 0.000000 -0.000000 -0.000001 0.000000 -0.000000 0.443686 -6.532238 -15.042708 -24.143076 -20.473140 -46.953972 0.000005 -49.757525 0.000014 27.614100 2.299695 36.658148 -0.144209 -0.495897 -8.324396 2.737048 5.498149 -52.902991 1.987068 4.843084 -44.595678 0.000001 0.000001 -0.000000 6.507677 10.394255 -12.491893 6.844003 19.586503 -1.556979 0.862330 27.057012 7.672254 0.000002 -0.000002 -0.000000 0.449591 2.452278 -20.319787 2.683706 5.457595 -52.344312 0.537954 2.672694 -22.756527 0.000001 0.000001 -0.000004 -0.264401 -2.206788 -6.069216 2.600791 5.392894 -51.467036 1.532968 4.336110 -38.925473 -0.000000 0.000000 -0.000000 -0.370887 -3.748132 -5.454046 2.158743 0.922504 -46.740559 0.263321 1.889592 -15.865454 0.000000 0.000000 0.000001 0.400421 3.263824 10.955810 -20.766564 41.190798 61.337940 -0.000002 42.210518 -0.000019 38.416908 2.235677 -40.365540 0.083298 -1.341417 17.604818 0.329320 -2.118469 17.670121 0.030401 -0.650820 5.348251 0.000000 -0.000001 0.000001 -1.602264 -0.553307 -0.493688 13.429579 -16.415029 3.088466 -5.759024 -11.880508 -5.230566 0.000000 0.000003 0.000001 -2.994869 2.852613 32.244141 0.165843 -1.512504 12.513117 0.011858 -0.406820 3.340131 -0.000000 0.000001 -0.000005 1.203830 -5.694265 13.726254 0.207591 -1.689653 14.007543 0.032143 -0.669250 5.500322 0.000002 0.000000 0.000000 1.758420 -12.279858 7.865406 0.202896 -1.670730 13.847587 0.079485 -1.050414 8.653263 0.000001 0.000001 -0.000001 -59.122568 -1.830128 11.576284 60.593839 0.791456 4.333797 9.527061 -0.300202 -7.025997 -1.202969 -0.000001 -0.000003 -0.000000 0.000001 0.000000 -58.639189 -2.941540 -6.913033 62.809177 1.427286 1.527811 5.080904 -0.063171 1.029454 1.026968 0.000002 -0.000002 -0.000000 -0.000001 -0.000000 
-0.822470 151.324020 -3.635319 -11.129179 -3.540029 -3.593736 15.443411 -1.474803 5.265139 5.682629 -0.816381 1.929416 5.680426 -0.808945 1.938670 9.469185 4.737553 2.177666 10.678163 2.192699 4.840379 -0.000005 -0.000001 -0.000000 -0.000005 -0.000001 -0.000000 -0.000005 -0.000001 -0.000000 0.446117 -6.527127 -14.961562 -24.172950 -20.513811 -47.191631 -0.000009 -48.765693 -0.000013 27.700858 1.507276 37.854039 -0.144209 -0.495925 -8.324401 2.737050 5.498136 -52.902995 1.987060 4.843072 -44.595675 -0.000002 0.000001 -0.000000 6.507683 10.394266 -12.491885 6.844004 19.586478 -1.556982 0.862330 27.057002 7.672255 0.000002 0.000002 0.000000 0.449580 2.452254 -20.319801 2.683718 5.457582 -52.344336 0.537959 2.672705 -22.756531 -0.000001 0.000000 0.000000 -0.264394 -2.206795 -6.069222 2.600787 5.392872 -51.467016 1.532966 4.336132 -38.925460 -0.000001 -0.000000 -0.000002 -0.370882 -3.748167 -5.454066 2.158744 0.922514 -46.740552 0.263315 1.889593 -15.865447 -0.000001 0.000001 -0.000001 0.382803 3.496640 10.992500 -20.777804 40.985018 61.370424 0.000019 42.111856 -0.000015 38.305388 2.373530 -40.443401 0.083301 -1.341416 17.604816 0.329318 -2.118469 17.670126 0.030400 -0.650820 5.348250 -0.000001 0.000001 -0.000002 -1.602261 -0.553307 -0.493686 13.429579 -16.415026 3.088468 -5.759027 -11.880512 -5.230567 -0.000004 0.000001 0.000000 -2.994869 2.852613 32.244141 0.165839 -1.512504 12.513115 0.011860 -0.406819 3.340125 0.000002 0.000002 0.000001 1.203832 -5.694263 13.726248 0.207592 -1.689653 14.007546 0.032144 -0.669250 5.500321 0.000000 -0.000000 0.000001 1.758420 -12.279857 7.865408 0.202893 -1.670730 13.847588 0.079483 -1.050412 8.653262 -0.000002 0.000002 -0.000001 -59.155244 -1.828381 11.684212 60.679162 0.689128 4.292416 9.480785 -0.291912 -6.927311 -1.195012 -0.000001 0.000003 -0.000000 0.000000 0.000000 -58.571645 -2.911046 -6.784108 62.797374 1.312250 1.476106 5.091112 -0.060993 1.153424 1.015975 0.000003 0.000001 -0.000000 -0.000001 0.000000 
